<svg xmlns="http://www.w3.org/2000/svg" xmlns:xlink="http://www.w3.org/1999/xlink" viewBox="0,0,256,256" width="96px" height="96px" fill-rule="nonzero"><defs><linearGradient x1="24.505" y1="30.618" x2="24.505" y2="49.808" gradientUnits="userSpaceOnUse" id="color-1"><stop offset="0" stop-color="#6dc7ff"></stop><stop offset="1" stop-color="#eaabff"></stop></linearGradient><linearGradient x1="39.503" y1="12.616" x2="39.503" y2="31.807" gradientUnits="userSpaceOnUse" id="color-2"><stop offset="0" stop-color="#6dc7ff"></stop><stop offset="1" stop-color="#eaabff"></stop></linearGradient><linearGradient x1="24.501" y1="14.151" x2="24.501" y2="50.79" gradientUnits="userSpaceOnUse" id="color-3"><stop offset="0" stop-color="#1a6dff"></stop><stop offset="1" stop-color="#c822ff"></stop></linearGradient><linearGradient x1="39.499" y1="14.151" x2="39.499" y2="50.79" gradientUnits="userSpaceOnUse" id="color-4"><stop offset="0" stop-color="#1a6dff"></stop><stop offset="1" stop-color="#c822ff"></stop></linearGradient></defs><g transform="translate(10.24,10.24) scale(0.92,0.92)"><g fill="none" fill-rule="nonzero" stroke="none" stroke-width="1" stroke-linecap="butt" stroke-linejoin="miter" stroke-miterlimit="10" stroke-dasharray="" stroke-dashoffset="0" font-family="none" font-weight="none" font-size="none" text-anchor="none" style="mix-blend-mode: normal"><g transform="translate(-4,-35.998) scale(4,4)"><path d="M20.355,41.457c-0.832,-0.844 -1.855,-1.924 -2.944,-2.819c-1.125,-0.925 -2.515,-1.823 -4.244,-2.256c-0.331,-0.081 -0.66,-0.151 -0.987,-0.205l-0.897,-0.112l0.223,-0.104c1.501,-0.615 3.311,-0.953 5.495,-0.953c6.172,0 8.831,2.691 11.643,5.547c0.852,0.863 1.88,1.936 2.993,2.836c1.14,0.921 2.54,1.811 4.259,2.24c0.329,0.083 0.657,0.152 0.984,0.207l0.847,0.107l-0.233,0.108c-1.5,0.613 -3.311,0.951 -5.492,0.951c-6.173,-0.002 -8.833,-2.691 -11.647,-5.547z" fill="url(#color-1)"></path><path d="M35.354,23.455c-0.832,-0.844 -1.855,-1.924 -2.944,-2.819c-1.125,-0.925 -2.515,-1.823 -4.244,-2.256c-0.331,-0.081 -0.66,-0.151 -0.987,-0.205l-0.897,-0.112l0.223,-0.104c1.501,-0.615 3.311,-0.953 5.495,-0.953c6.172,0 8.831,2.691 11.643,5.547c0.852,0.863 1.88,1.936 2.993,2.836c1.14,0.921 2.54,1.811 4.259,2.24c0.329,0.083 0.657,0.152 0.984,0.207l0.847,0.107l-0.233,0.108c-1.5,0.613 -3.311,0.951 -5.492,0.951c-6.174,-0.001 -8.834,-2.691 -11.647,-5.547z" fill="url(#color-2)"></path><path d="M17.509,44.261c-1.892,-1.915 -3.367,-3.515 -5.313,-4.003c-3.483,-0.871 -6.54,0.54 -9.395,4.344c-0.651,0.867 -2.032,0.208 -1.769,-0.843c2.108,-8.431 7.496,-12.756 15.969,-12.756c7.857,0 11.511,3.712 14.492,6.739c1.879,1.905 3.421,3.516 5.372,4.004c3.481,0.869 6.479,-0.535 9.336,-4.344c0.651,-0.867 2.032,-0.208 1.769,0.843c-2.108,8.431 -7.496,12.753 -15.969,12.753c-7.858,0 -11.512,-3.711 -14.492,-6.737zM44.462,42.015l-0.472,0.34c-2.267,1.515 -4.792,2.036 -7.609,1.331c-2.615,-0.653 -4.579,-2.781 -6.313,-4.54c-2.897,-2.943 -6.053,-6.143 -13.067,-6.143c-5.64,0 -9.647,2.067 -12.096,6.292l-0.376,0.712l0.503,-0.359c2.287,-1.515 4.835,-2.035 7.651,-1.331c2.616,0.656 4.528,2.795 6.249,4.539c2.899,2.943 6.056,6.141 13.069,6.141c5.639,0 9.647,-2.064 12.096,-6.288z" fill="url(#color-3)"></path><path d="M32.507,26.259c-1.892,-1.915 -3.367,-3.515 -5.313,-4.003c-3.483,-0.871 -6.54,0.54 -9.395,4.344c-0.651,0.867 -2.032,0.208 -1.769,-0.843c2.108,-8.431 7.496,-12.756 15.969,-12.756c7.857,0 11.511,3.712 14.492,6.739c1.879,1.905 3.421,3.516 5.372,4.004c3.481,0.869 6.479,-0.535 9.336,-4.344c0.651,-0.867 2.032,-0.208 1.769,0.843c-2.108,8.431 -7.496,12.753 -15.969,12.753c-7.857,0.001 -11.512,-3.71 -14.492,-6.737zM59.461,24.014l-0.472,0.34c-2.267,1.515 -4.792,2.036 -7.609,1.331c-2.615,-0.653 -4.579,-2.781 -6.313,-4.54c-2.897,-2.943 -6.053,-6.143 -13.067,-6.143c-5.64,0 -9.647,2.067 -12.096,6.292l-0.376,0.712l0.503,-0.359c2.287,-1.515 4.835,-2.035 7.651,-1.331c2.616,0.656 4.528,2.795 6.249,4.539c2.899,2.943 6.056,6.141 13.069,6.141c5.639,0 9.647,-2.064 12.096,-6.288z" fill="url(#color-4)"></path></g></g><g fill="#000000" fill-rule="nonzero" stroke="none" stroke-width="1" stroke-linecap="butt" stroke-linejoin="miter" stroke-miterlimit="10" stroke-dasharray="" stroke-dashoffset="0" font-family="none" font-weight="none" font-size="none" text-anchor="none" style="mix-blend-mode: normal"><g><path d="M45.665,189.095v3.8h-6.97v18.95h-4.69v-18.95h-6.87v-3.8zM59.775,211.845h-4.57c-0.20667,-0.40667 -0.35667,-0.91333 -0.45,-1.52v0c-1.09333,1.22 -2.51667,1.83 -4.27,1.83v0c-1.65333,0 -3.02333,-0.47667 -4.11,-1.43c-1.09333,-0.96 -1.64,-2.17 -1.64,-3.63v0c0,-1.79333 0.66667,-3.16667 2,-4.12c1.32667,-0.96 3.24333,-1.44667 5.75,-1.46v0h2.08v-0.97c0,-0.78 -0.2,-1.40333 -0.6,-1.87c-0.4,-0.46667 -1.03333,-0.7 -1.9,-0.7v0c-0.76,0 -1.35667,0.18 -1.79,0.54c-0.42667,0.36667 -0.64,0.86667 -0.64,1.5v0h-4.52c0,-0.98 0.30333,-1.88667 0.91,-2.72c0.6,-0.83333 1.45333,-1.48667 2.56,-1.96c1.1,-0.47333 2.34,-0.71 3.72,-0.71v0c2.08,0 3.73333,0.52333 4.96,1.57c1.22,1.04667 1.83,2.52 1.83,4.42v0v7.32c0.01333,1.60667 0.24,2.82 0.68,3.64v0zM51.475,208.705v0c0.66667,0 1.28,-0.15 1.84,-0.45c0.56667,-0.29333 0.98333,-0.69 1.25,-1.19v0v-2.91h-1.68c-2.26667,0 -3.47,0.78333 -3.61,2.35v0l-0.02,0.26c0,0.56667 0.19667,1.03 0.59,1.39c0.4,0.36667 0.94333,0.55 1.63,0.55zM67.335,194.935v16.91h-4.53v-16.91zM62.535,190.565v0c0,-0.68 0.22667,-1.23667 0.68,-1.67c0.45333,-0.44 1.07,-0.66 1.85,-0.66v0c0.77333,0 1.39,0.22 1.85,0.66c0.45333,0.43333 0.68,0.99 0.68,1.67v0c0,0.68667 -0.23,1.25 -0.69,1.69c-0.46667,0.43333 -1.08,0.65 -1.84,0.65c-0.76,0 -1.37,-0.21667 -1.83,-0.65c-0.46667,-0.44 -0.7,-1.00333 -0.7,-1.69zM75.815,187.845v24h-4.53v-24zM91.165,194.935l3.07,10.77l2.22,-10.77h4.36l-4.31,16.91h-3.78l-3.2,-10.64l-3.21,10.64h-3.76l-4.32,-16.91h4.36l2.21,10.75l3.09,-10.75zM107.815,194.935v16.91h-4.53v-16.91zM103.025,190.565v0c0,-0.68 0.22667,-1.23667 0.68,-1.67c0.45333,-0.44 1.07,-0.66 1.85,-0.66v0c0.76667,0 1.38,0.22 1.84,0.66c0.46,0.43333 0.69,0.99 0.69,1.67v0c0,0.68667 -0.23333,1.25 -0.7,1.69c-0.46,0.43333 -1.07,0.65 -1.83,0.65c-0.76,0 -1.37333,-0.21667 -1.84,-0.65c-0.46,-0.44 -0.69,-1.00333 -0.69,-1.69zM111.445,194.935h4.25l0.14,1.96c1.20667,-1.51333 2.82667,-2.27 4.86,-2.27v0c1.79333,0 3.12667,0.52667 4,1.58c0.87333,1.05333 1.32,2.62667 1.34,4.72v0v10.92h-4.51v-10.81c0,-0.96 -0.21,-1.65667 -0.63,-2.09c-0.41333,-0.43333 -1.10667,-0.65 -2.08,-0.65v0c-1.26667,0 -2.22,0.54333 -2.86,1.63v0v11.92h-4.51zM128.755,203.265v0c0,-2.63333 0.59,-4.73 1.77,-6.29c1.18667,-1.56667 2.80667,-2.35 4.86,-2.35v0c1.64,0 2.99667,0.61667 4.07,1.85v0v-8.63h4.53v24h-4.07l-0.22,-1.8c-1.12667,1.40667 -2.57667,2.11 -4.35,2.11v0c-1.98667,0 -3.58333,-0.78333 -4.79,-2.35c-1.2,-1.56667 -1.8,-3.74667 -1.8,-6.54zM133.275,203.595v0c0,1.58667 0.27333,2.8 0.82,3.64c0.55333,0.84667 1.35667,1.27 2.41,1.27v0c1.39333,0 2.37667,-0.59 2.95,-1.77v0v-6.67c-0.56,-1.18 -1.53333,-1.77 -2.92,-1.77v0c-2.17333,0 -3.26,1.76667 -3.26,5.3zM168.925,204.265h4.69c-0.18,2.44667 -1.08333,4.37333 -2.71,5.78c-1.63333,1.40667 -3.78333,2.11 -6.45,2.11v0c-2.91333,0 -5.20667,-0.98 -6.88,-2.94c-1.67333,-1.96667 -2.51,-4.66333 -2.51,-8.09v0v-1.39c0,-2.18667 0.38667,-4.11333 1.16,-5.78c0.77333,-1.66667 1.87333,-2.94667 3.3,-3.84c1.43333,-0.88667 3.1,-1.33 5,-1.33v0c2.62,0 4.73333,0.70333 6.34,2.11c1.60667,1.40667 2.53333,3.38 2.78,5.92v0h-4.69c-0.11333,-1.46667 -0.52,-2.53333 -1.22,-3.2c-0.70667,-0.66 -1.77667,-0.99 -3.21,-0.99v0c-1.56667,0 -2.73667,0.56 -3.51,1.68c-0.78,1.12 -1.18,2.85667 -1.2,5.21v0v1.72c0,2.46 0.37333,4.25667 1.12,5.39c0.74667,1.13333 1.92,1.7 3.52,1.7v0c1.45333,0 2.53667,-0.33 3.25,-0.99c0.71333,-0.66 1.12,-1.68333 1.22,-3.07zM188.485,205.875v0c0,-0.88667 -0.31,-1.56667 -0.93,-2.04c-0.62667,-0.47333 -1.75333,-0.97333 -3.38,-1.5c-1.62667,-0.52667 -2.91333,-1.04333 -3.86,-1.55v0c-2.58,-1.4 -3.87,-3.28 -3.87,-5.64v0c0,-1.23333 0.34667,-2.33 1.04,-3.29c0.69333,-0.96667 1.68667,-1.72 2.98,-2.26c1.3,-0.54 2.75667,-0.81 4.37,-0.81v0c1.62667,0 3.07333,0.29333 4.34,0.88c1.27333,0.58667 2.26,1.41667 2.96,2.49c0.70667,1.07333 1.06,2.29333 1.06,3.66v0h-4.69c0,-1.04 -0.32667,-1.85 -0.98,-2.43c-0.66,-0.58 -1.58333,-0.87 -2.77,-0.87v0c-1.14667,0 -2.03667,0.24333 -2.67,0.73c-0.63333,0.48667 -0.95,1.12333 -0.95,1.91v0c0,0.74 0.37,1.36 1.11,1.86c0.74667,0.5 1.84333,0.97 3.29,1.41v0c2.66667,0.8 4.61,1.79333 5.83,2.98c1.22,1.18667 1.83,2.66667 1.83,4.44v0c0,1.96667 -0.74667,3.51 -2.24,4.63c-1.48667,1.12 -3.49,1.68 -6.01,1.68v0c-1.75333,0 -3.34667,-0.32 -4.78,-0.96c-1.44,-0.64 -2.53667,-1.51667 -3.29,-2.63c-0.76,-1.11333 -1.14,-2.40667 -1.14,-3.88v0h4.71c0,2.51333 1.5,3.77 4.5,3.77v0c1.11333,0 1.98333,-0.22667 2.61,-0.68c0.62,-0.45333 0.93,-1.08667 0.93,-1.9zM208.165,205.875v0c0,-0.88667 -0.31333,-1.56667 -0.94,-2.04c-0.62667,-0.47333 -1.75333,-0.97333 -3.38,-1.5c-1.62,-0.52667 -2.90667,-1.04333 -3.86,-1.55v0c-2.58,-1.4 -3.87,-3.28 -3.87,-5.64v0c0,-1.23333 0.34667,-2.33 1.04,-3.29c0.69333,-0.96667 1.68667,-1.72 2.98,-2.26c1.3,-0.54 2.75667,-0.81 4.37,-0.81v0c1.62667,0 3.07333,0.29333 4.34,0.88c1.27333,0.58667 2.26,1.41667 2.96,2.49c0.70667,1.07333 1.06,2.29333 1.06,3.66v0h-4.69c0,-1.04 -0.32667,-1.85 -0.98,-2.43c-0.66,-0.58 -1.58333,-0.87 -2.77,-0.87v0c-1.14667,0 -2.03667,0.24333 -2.67,0.73c-0.63333,0.48667 -0.95,1.12333 -0.95,1.91v0c0,0.74 0.37,1.36 1.11,1.86c0.74667,0.5 1.84333,0.97 3.29,1.41v0c2.66667,0.8 4.61,1.79333 5.83,2.98c1.22,1.18667 1.83,2.66667 1.83,4.44v0c0,1.96667 -0.74333,3.51 -2.23,4.63c-1.49333,1.12 -3.5,1.68 -6.02,1.68v0c-1.75333,0 -3.34667,-0.32 -4.78,-0.96c-1.44,-0.64 -2.53667,-1.51667 -3.29,-2.63c-0.75333,-1.11333 -1.13,-2.40667 -1.13,-3.88v0h4.7c0,2.51333 1.5,3.77 4.5,3.77v0c1.11333,0 1.98333,-0.22667 2.61,-0.68c0.62667,-0.45333 0.94,-1.08667 0.94,-1.9z"></path></g></g></g></svg>